<?xml version="1.0" encoding="UTF-8"?>
<svg xmlns="http://www.w3.org/2000/svg" width="575" height="115">
   <defs>
      <style type="text/css">
    @namespace "http://www.w3.org/2000/svg";
    .line                 {fill: none; stroke: #332200; stroke-width: 1;}
    .bold-line            {stroke: #140E00; shape-rendering: crispEdges; stroke-width: 2;}
    .thin-line            {stroke: #1F1400; shape-rendering: crispEdges}
    .filled               {fill: #332200; stroke: none;}
    text.terminal         {font-family: Verdana, Sans-serif;
                            font-size: 12px;
                            fill: #140E00;
                            font-weight: bold;
                          }
    text.nonterminal      {font-family: Verdana, Sans-serif;
                            font-size: 12px;
                            fill: #1A1100;
                            font-weight: normal;
                          }
    text.regexp           {font-family: Verdana, Sans-serif;
                            font-size: 12px;
                            fill: #1F1400;
                            font-weight: normal;
                          }
    rect, circle, polygon {fill: #332200; stroke: #332200;}
    rect.terminal         {fill: #FFC34D; stroke: #332200; stroke-width: 1;}
    rect.nonterminal      {fill: #FFDF9E; stroke: #332200; stroke-width: 1;}
    rect.text             {fill: none; stroke: none;}
    polygon.regexp        {fill: #FFECC7; stroke: #332200; stroke-width: 1;}
  </style>
   </defs>
   <polygon points="9 51 1 47 1 55"/>
   <polygon points="17 51 9 47 9 55"/>
   <rect x="51" y="69" width="26" height="32" rx="10"/>
   <rect x="49"
         y="67"
         width="26"
         height="32"
         class="terminal"
         rx="10"/>
   <text class="terminal" x="59" y="87">-</text>
   <polygon points="137 53 144 37 192 37 199 53 192 69 144 69"/>
   <polygon points="135 51 142 35 190 35 197 51 190 67 142 67" class="regexp"/>
   <text class="regexp" x="150" y="55">[1-9]</text>
   <polygon points="239 19 246 3 294 3 301 19 294 35 246 35"/>
   <polygon points="237 17 244 1 292 1 299 17 292 33 244 33" class="regexp"/>
   <text class="regexp" x="252" y="21">[0-9]</text>
   <rect x="137" y="81" width="28" height="32" rx="10"/>
   <rect x="135"
         y="79"
         width="28"
         height="32"
         class="terminal"
         rx="10"/>
   <text class="terminal" x="145" y="99">0</text>
   <rect x="381" y="37" width="24" height="32" rx="10"/>
   <rect x="379"
         y="35"
         width="24"
         height="32"
         class="terminal"
         rx="10"/>
   <text class="terminal" x="389" y="55">.</text>
   <polygon points="445 19 452 3 500 3 507 19 500 35 452 35"/>
   <polygon points="443 17 450 1 498 1 505 17 498 33 450 33" class="regexp"/>
   <text class="regexp" x="458" y="21">[0-9]</text>
   <path class="line"
         d="m17 51 h2 m20 0 h10 m0 0 h36 m-66 0 h20 m46 0 h20 m-86 0 q10 0 10 10 m66 0 q0 -10 10 -10 m-76 10 v12 m66 0 v-12 m-66 12 q0 10 10 10 m46 0 q10 0 10 -10 m-56 10 h10 m26 0 h10 m40 -32 h10 m62 0 h10 m20 0 h10 m0 0 h72 m-102 0 l20 0 m-1 0 q-9 0 -9 -10 l0 -14 q0 -10 10 -10 m82 34 l20 0 m-20 0 q10 0 10 -10 l0 -14 q0 -10 -10 -10 m-82 0 h10 m62 0 h10 m-204 34 h20 m204 0 h20 m-244 0 q10 0 10 10 m224 0 q0 -10 10 -10 m-234 10 v24 m224 0 v-24 m-224 24 q0 10 10 10 m204 0 q10 0 10 -10 m-214 10 h10 m28 0 h10 m0 0 h156 m40 -44 h10 m24 0 h10 m20 0 h10 m0 0 h72 m-102 0 l20 0 m-1 0 q-9 0 -9 -10 l0 -14 q0 -10 10 -10 m82 34 l20 0 m-20 0 q10 0 10 -10 l0 -14 q0 -10 -10 -10 m-82 0 h10 m62 0 h10 m-166 34 h20 m166 0 h20 m-206 0 q10 0 10 10 m186 0 q0 -10 10 -10 m-196 10 v14 m186 0 v-14 m-186 14 q0 10 10 10 m166 0 q10 0 10 -10 m-176 10 h10 m0 0 h156 m23 -34 h-3"/>
   <polygon points="565 51 573 47 573 55"/>
   <polygon points="565 51 557 47 557 55"/>
</svg>
