<?xml version="1.0" encoding="UTF-8"?>
<svg xmlns="http://www.w3.org/2000/svg" width="151" height="81">
   <defs>
      <style type="text/css">
    @namespace "http://www.w3.org/2000/svg";
    .line                 {fill: none; stroke: #332200; stroke-width: 1;}
    .bold-line            {stroke: #140E00; shape-rendering: crispEdges; stroke-width: 2;}
    .thin-line            {stroke: #1F1400; shape-rendering: crispEdges}
    .filled               {fill: #332200; stroke: none;}
    text.terminal         {font-family: Verdana, Sans-serif;
                            font-size: 12px;
                            fill: #140E00;
                            font-weight: bold;
                          }
    text.nonterminal      {font-family: Verdana, Sans-serif;
                            font-size: 12px;
                            fill: #1A1100;
                            font-weight: normal;
                          }
    text.regexp           {font-family: Verdana, Sans-serif;
                            font-size: 12px;
                            fill: #1F1400;
                            font-weight: normal;
                          }
    rect, circle, polygon {fill: #332200; stroke: #332200;}
    rect.terminal         {fill: #FFC34D; stroke: #332200; stroke-width: 1;}
    rect.nonterminal      {fill: #FFDF9E; stroke: #332200; stroke-width: 1;}
    rect.text             {fill: none; stroke: none;}
    polygon.regexp        {fill: #FFECC7; stroke: #332200; stroke-width: 1;}
  </style>
   </defs>
   <polygon points="9 61 1 57 1 65"/>
   <polygon points="17 61 9 57 9 65"/>
   <a xmlns:xlink="http://www.w3.org/1999/xlink"
      xlink:href="#ident"
      xlink:title="ident">
      <rect x="51" y="47" width="52" height="32"/>
      <rect x="49" y="45" width="52" height="32" class="nonterminal"/>
      <text class="nonterminal" x="59" y="65">ident</text>
   </a>
   <rect x="51" y="3" width="28" height="32" rx="10"/>
   <rect x="49"
         y="1"
         width="28"
         height="32"
         class="terminal"
         rx="10"/>
   <text class="terminal" x="59" y="21">/</text>
   <path class="line"
         d="m17 61 h2 m20 0 h10 m52 0 h10 m-92 0 l20 0 m-1 0 q-9 0 -9 -10 l0 -24 q0 -10 10 -10 m72 44 l20 0 m-20 0 q10 0 10 -10 l0 -24 q0 -10 -10 -10 m-72 0 h10 m28 0 h10 m0 0 h24 m23 44 h-3"/>
   <polygon points="141 61 149 57 149 65"/>
   <polygon points="141 61 133 57 133 65"/>
</svg>
