<?xml version="1.0" encoding="UTF-8"?>
<svg xmlns="http://www.w3.org/2000/svg" width="229" height="125">
   <defs>
      <style type="text/css">
    @namespace "http://www.w3.org/2000/svg";
    .line                 {fill: none; stroke: #332200; stroke-width: 1;}
    .bold-line            {stroke: #140E00; shape-rendering: crispEdges; stroke-width: 2;}
    .thin-line            {stroke: #1F1400; shape-rendering: crispEdges}
    .filled               {fill: #332200; stroke: none;}
    text.terminal         {font-family: Verdana, Sans-serif;
                            font-size: 12px;
                            fill: #140E00;
                            font-weight: bold;
                          }
    text.nonterminal      {font-family: Verdana, Sans-serif;
                            font-size: 12px;
                            fill: #1A1100;
                            font-weight: normal;
                          }
    text.regexp           {font-family: Verdana, Sans-serif;
                            font-size: 12px;
                            fill: #1F1400;
                            font-weight: normal;
                          }
    rect, circle, polygon {fill: #332200; stroke: #332200;}
    rect.terminal         {fill: #FFC34D; stroke: #332200; stroke-width: 1;}
    rect.nonterminal      {fill: #FFDF9E; stroke: #332200; stroke-width: 1;}
    rect.text             {fill: none; stroke: none;}
    polygon.regexp        {fill: #FFECC7; stroke: #332200; stroke-width: 1;}
  </style>
   </defs>
   <polygon points="9 17 1 13 1 21"/>
   <polygon points="17 17 9 13 9 21"/>
   <a xmlns:xlink="http://www.w3.org/1999/xlink"
      xlink:href="#object_projection"
      xlink:title="object_projection">
      <rect x="51" y="3" width="130" height="32"/>
      <rect x="49" y="1" width="130" height="32" class="nonterminal"/>
      <text class="nonterminal" x="59" y="21">object_projection</text>
   </a>
   <a xmlns:xlink="http://www.w3.org/1999/xlink"
      xlink:href="#id_projection"
      xlink:title="id_projection">
      <rect x="51" y="47" width="102" height="32"/>
      <rect x="49" y="45" width="102" height="32" class="nonterminal"/>
      <text class="nonterminal" x="59" y="65">id_projection</text>
   </a>
   <a xmlns:xlink="http://www.w3.org/1999/xlink"
      xlink:href="#ident"
      xlink:title="ident">
      <rect x="51" y="91" width="52" height="32"/>
      <rect x="49" y="89" width="52" height="32" class="nonterminal"/>
      <text class="nonterminal" x="59" y="109">ident</text>
   </a>
   <path class="line"
         d="m17 17 h2 m20 0 h10 m130 0 h10 m-170 0 h20 m150 0 h20 m-190 0 q10 0 10 10 m170 0 q0 -10 10 -10 m-180 10 v24 m170 0 v-24 m-170 24 q0 10 10 10 m150 0 q10 0 10 -10 m-160 10 h10 m102 0 h10 m0 0 h28 m-160 -10 v20 m170 0 v-20 m-170 20 v24 m170 0 v-24 m-170 24 q0 10 10 10 m150 0 q10 0 10 -10 m-160 10 h10 m52 0 h10 m0 0 h78 m23 -88 h-3"/>
   <polygon points="219 17 227 13 227 21"/>
   <polygon points="219 17 211 13 211 21"/>
</svg>
