<?xml version="1.0" encoding="UTF-8"?>
<svg xmlns="http://www.w3.org/2000/svg" width="179" height="169">
   <defs>
      <style type="text/css">
    @namespace "http://www.w3.org/2000/svg";
    .line                 {fill: none; stroke: #332200; stroke-width: 1;}
    .bold-line            {stroke: #140E00; shape-rendering: crispEdges; stroke-width: 2;}
    .thin-line            {stroke: #1F1400; shape-rendering: crispEdges}
    .filled               {fill: #332200; stroke: none;}
    text.terminal         {font-family: Verdana, Sans-serif;
                            font-size: 12px;
                            fill: #140E00;
                            font-weight: bold;
                          }
    text.nonterminal      {font-family: Verdana, Sans-serif;
                            font-size: 12px;
                            fill: #1A1100;
                            font-weight: normal;
                          }
    text.regexp           {font-family: Verdana, Sans-serif;
                            font-size: 12px;
                            fill: #1F1400;
                            font-weight: normal;
                          }
    rect, circle, polygon {fill: #332200; stroke: #332200;}
    rect.terminal         {fill: #FFC34D; stroke: #332200; stroke-width: 1;}
    rect.nonterminal      {fill: #FFDF9E; stroke: #332200; stroke-width: 1;}
    rect.text             {fill: none; stroke: none;}
    polygon.regexp        {fill: #FFECC7; stroke: #332200; stroke-width: 1;}
  </style>
   </defs>
   <polygon points="9 17 1 13 1 21"/>
   <polygon points="17 17 9 13 9 21"/>
   <a xmlns:xlink="http://www.w3.org/1999/xlink"
      xlink:href="#reference"
      xlink:title="reference">
      <rect x="51" y="3" width="80" height="32"/>
      <rect x="49" y="1" width="80" height="32" class="nonterminal"/>
      <text class="nonterminal" x="59" y="21">reference</text>
   </a>
   <a xmlns:xlink="http://www.w3.org/1999/xlink"
      xlink:href="#bool"
      xlink:title="bool">
      <rect x="51" y="47" width="46" height="32"/>
      <rect x="49" y="45" width="46" height="32" class="nonterminal"/>
      <text class="nonterminal" x="59" y="65">bool</text>
   </a>
   <a xmlns:xlink="http://www.w3.org/1999/xlink"
      xlink:href="#number"
      xlink:title="number">
      <rect x="51" y="91" width="68" height="32"/>
      <rect x="49" y="89" width="68" height="32" class="nonterminal"/>
      <text class="nonterminal" x="59" y="109">number</text>
   </a>
   <a xmlns:xlink="http://www.w3.org/1999/xlink"
      xlink:href="#string"
      xlink:title="string">
      <rect x="51" y="135" width="56" height="32"/>
      <rect x="49" y="133" width="56" height="32" class="nonterminal"/>
      <text class="nonterminal" x="59" y="153">string</text>
   </a>
   <path class="line"
         d="m17 17 h2 m20 0 h10 m80 0 h10 m-120 0 h20 m100 0 h20 m-140 0 q10 0 10 10 m120 0 q0 -10 10 -10 m-130 10 v24 m120 0 v-24 m-120 24 q0 10 10 10 m100 0 q10 0 10 -10 m-110 10 h10 m46 0 h10 m0 0 h34 m-110 -10 v20 m120 0 v-20 m-120 20 v24 m120 0 v-24 m-120 24 q0 10 10 10 m100 0 q10 0 10 -10 m-110 10 h10 m68 0 h10 m0 0 h12 m-110 -10 v20 m120 0 v-20 m-120 20 v24 m120 0 v-24 m-120 24 q0 10 10 10 m100 0 q10 0 10 -10 m-110 10 h10 m56 0 h10 m0 0 h24 m23 -132 h-3"/>
   <polygon points="169 17 177 13 177 21"/>
   <polygon points="169 17 161 13 161 21"/>
</svg>
